<svg xmlns="http://www.w3.org/2000/svg" id="Calque_2" data-name="Calque 2" viewBox="0 0 435.08 88.95"><defs><style>      .cls-1 {        fill: #fff;      }    </style></defs><g id="Calque_1-2" data-name="Calque 1"><g><path class="cls-1" d="M151.8,17.57h31.36v6.58h-23.79v16.91h19.35v6.58h-19.35v17.37h25.09v6.58h-32.67V17.57Z"></path><path class="cls-1" d="M202.98,31.95c8.95,0,11.93,6.12,11.93,6.12h.15s-.15-1.15-.15-2.6v-17.9h7.42v54.01h-7.04v-3.67c0-1.53.08-2.6.08-2.6h-.15s-3.14,7.19-12.7,7.19c-10.48,0-17.06-8.26-17.06-20.27s7.27-20.27,17.52-20.27ZM203.97,66.07c5.74,0,11.17-4.05,11.17-13.92,0-6.89-3.6-13.77-10.94-13.77-6.12,0-11.17,5.05-11.17,13.85s4.51,13.85,10.94,13.85Z"></path><path class="cls-1" d="M227.3,32.87h7.42v23.1c0,5.36,1.07,9.64,7.27,9.64,7.88,0,12.55-6.96,12.55-14.61v-18.13h7.42v38.71h-7.19v-5.13c0-1.61.15-2.83.15-2.83h-.15c-1.61,3.82-6.66,8.87-14.23,8.87-8.72,0-13.23-4.59-13.23-14.84v-24.79Z"></path><path class="cls-1" d="M268.39,33.33h3.21v6.73c0,1.76-.31,3.14-.31,3.14h.15c1.91-5.74,8.72-10.79,14.69-10.79,7.65,0,11.25,3.6,12.09,10.4h.15c2.14-5.35,7.96-10.4,14.53-10.4,9.87,0,12.78,5.81,12.78,14.92v24.25h-3.21v-23.1c0-7.19-1.45-13.08-9.56-13.08-6.35,0-11.78,5.66-13.46,11.63-.54,1.76-.76,3.67-.76,5.89v18.67h-3.21v-23.1c0-6.58-.92-13.08-9.33-13.08-6.81,0-12.16,5.97-13.92,12.32-.46,1.61-.61,3.37-.61,5.2v18.67h-3.21v-38.25Z"></path><path class="cls-1" d="M349.48,32.41c10.94,0,19.81,8.64,19.81,19.81s-8.87,20.27-19.81,20.27-19.81-8.87-19.81-20.27,8.87-19.81,19.81-19.81ZM349.48,69.36c9.1,0,16.45-7.42,16.45-17.14s-7.34-16.68-16.45-16.68-16.45,7.19-16.45,16.68,7.34,17.14,16.45,17.14Z"></path><path class="cls-1" d="M368.45,33.33h3.44l11.78,29.99c.69,1.84,1.3,4.13,1.3,4.13h.15s.61-2.29,1.3-4.13l11.78-29.99h3.37l-14.99,38.25h-3.06l-15.07-38.25Z"></path><path class="cls-1" d="M419.48,32.41c10.4,0,15.61,8.19,15.61,17.44,0,.84-.15,2.07-.15,2.07h-30.68c0,11.09,7.5,17.44,16.37,17.44,7.34,0,11.86-4.82,11.86-4.82l1.76,2.68s-5.35,5.28-13.62,5.28c-10.79,0-19.74-7.8-19.74-19.97,0-12.93,8.8-20.12,18.59-20.12ZM431.72,48.94c-.38-9.33-5.97-13.54-12.32-13.54-7.04,0-13.54,4.59-14.92,13.54h27.23Z"></path></g><path class="cls-1" d="M84.64,55.74v-22.54h22.8l17.4-16.6L107.43,0H40.19v27.79h-22.78L0,44.4l17.41,16.6h22.78v27.96h67.24l17.4-16.6-17.41-16.61h-22.79ZM45.51,5.32h59.79l11.83,11.28-11.83,11.29h-59.79V5.32ZM19.53,55.68l-11.83-11.28,11.83-11.29h59.78v22.57H19.53ZM105.3,83.64h-59.79v-22.57h59.79l11.83,11.29-11.83,11.28Z"></path></g></svg>